<svg width="51" height="50" viewBox="0 0 51 50" fill="none" xmlns="http://www.w3.org/2000/svg">
<circle cx="25.5" cy="25" r="25" fill="#3B82F6"/>
<path d="M36.9624 22.8661C37.7182 22.3438 38.5 21.8039 38.5 20.9824C38.5 20.1607 37.7182 19.6208 36.9624 19.0984C36.5543 18.8166 35.9953 18.4305 35.9284 18.1788C35.8549 17.9031 36.1423 17.2943 36.3732 16.8054C36.7577 15.9903 37.1557 15.1476 36.7592 14.4603C36.3574 13.7638 35.4221 13.6885 34.5177 13.6158C33.9865 13.5733 33.3252 13.52 33.1317 13.3261C32.9384 13.1323 32.8855 12.4692 32.8431 11.9362C32.7706 11.0292 32.6958 10.0915 32.0013 9.68849C31.3154 9.29089 30.4757 9.68977 29.6631 10.0754C29.1753 10.307 28.5686 10.5952 28.2931 10.5215C28.0421 10.4544 27.6573 9.8938 27.3763 9.48472C26.8552 8.72674 26.3166 7.94275 25.4972 7.94275C24.6781 7.94275 24.1397 8.72674 23.6191 9.48472C23.3381 9.89406 22.9533 10.4544 22.7026 10.5217C22.4271 10.5957 21.8211 10.3075 21.3333 10.0759C20.5203 9.69028 19.68 9.29165 18.9952 9.68977C18.3009 10.0927 18.2264 11.0305 18.1544 11.9372C18.1122 12.4702 18.0596 13.1333 17.8663 13.3271C17.6733 13.521 17.012 13.5743 16.4808 13.6169C15.5767 13.6898 14.6416 13.765 14.24 14.4616C13.8435 15.1491 14.2415 15.9915 14.6266 16.8064C14.8575 17.295 15.1449 17.9036 15.0714 18.1793C15.0045 18.431 14.4455 18.8169 14.0376 19.0987C13.2818 19.621 12.5 20.1609 12.5 20.9824C12.5 21.8036 13.2818 22.3438 14.0376 22.8659C14.4458 23.1477 15.0045 23.5338 15.0714 23.7853C15.1449 24.0607 14.8575 24.6693 14.6263 25.1584C14.2415 25.973 13.8435 26.8154 14.2398 27.5028C14.6413 28.1993 15.5764 28.2745 16.4808 28.3474C16.6282 28.3592 16.7851 28.3724 16.9398 28.3885L12.8794 38.0629C12.7223 38.4373 12.7899 38.8597 13.0562 39.1652C13.3227 39.4712 13.7311 39.5954 14.1218 39.4899L16.3544 38.8928L17.6733 40.8974C17.8933 41.2317 18.2735 41.4022 18.6457 41.3667C19.0321 41.3315 19.3665 41.0872 19.5183 40.7291L23.2385 31.9471C23.8859 32.7912 24.4716 34.0221 25.4972 34.0221C26.525 34.0221 27.1102 32.7876 27.7599 31.9435L31.4817 40.7294C31.6335 41.0872 31.968 41.3315 32.3543 41.3667C32.7265 41.4023 33.1068 41.2317 33.3268 40.8974L34.6558 38.8887L36.8783 39.4899C37.2691 39.5954 37.677 39.4712 37.9438 39.1652C38.2101 38.8597 38.2777 38.4373 38.1208 38.0632L34.0608 28.39C34.2148 28.374 34.371 28.361 34.5177 28.349C35.4221 28.2765 36.3572 28.2013 36.759 27.5048C37.1555 26.8172 36.7577 25.9746 36.3729 25.1594C36.1423 24.6703 35.8549 24.0618 35.9284 23.7863C35.9953 23.5343 36.5543 23.1482 36.9624 22.8661ZM18.5428 40.3221L17.2241 38.3174C16.9725 37.9349 16.5076 37.762 16.0731 37.8801L13.8395 38.4684L17.9283 28.7262C18.0095 28.8754 18.0561 29.1322 18.0803 29.2995C18.0882 29.3711 18.1059 29.4302 18.1537 30.0292C18.2256 30.9351 18.2999 31.8718 18.9942 32.2779C19.6806 32.6729 20.52 32.2756 21.3316 31.8904C21.6454 31.742 22.0083 31.5696 22.3013 31.4854L18.5428 40.3221ZM34.9272 37.8803C34.49 37.762 34.0259 37.9369 33.7756 38.3174L32.4405 40.3205L28.6983 31.4865C29.0351 31.5844 29.4502 31.7903 29.8691 31.9863C30.7827 32.4144 31.7673 32.7678 32.3769 31.9287C32.3889 31.9124 32.4042 31.8989 32.4156 31.882C32.4185 31.8777 32.4203 31.8726 32.4231 31.868C32.7327 31.3921 32.789 30.7022 32.8428 30.0284C32.8577 29.8412 32.8743 29.6385 32.8975 29.4451C32.8993 29.4298 32.9009 29.414 32.9028 29.3987C32.9099 29.3431 32.9179 29.289 32.9263 29.236C32.9389 29.1574 32.9529 29.0822 32.9692 29.0131C32.9763 28.983 32.9846 28.9565 32.9925 28.9289C33.0132 28.8568 33.0358 28.7897 33.0632 28.7377C33.0655 28.7331 33.0682 28.7292 33.0707 28.7249L37.1555 38.4822C35.974 38.1631 34.8657 37.8637 34.9272 37.8803ZM35.4315 25.6063C35.6499 26.0694 35.98 26.7687 35.8572 26.9814C35.729 27.2038 34.95 27.2663 34.4343 27.3079C34.0168 27.3413 33.5934 27.3778 33.2173 27.4752C31.9976 27.7287 31.8926 28.8147 31.8027 29.9465C31.7718 30.3339 31.7292 30.87 31.6173 31.1682C31.462 31.5777 31.0997 31.4081 30.2993 31.0353C30.2973 31.0343 30.2952 31.0333 30.2932 31.0325C30.2468 31.0103 30.2306 31.0033 30.1087 30.9453C29.697 30.7499 29.2778 30.5535 28.872 30.4546C28.8419 30.4474 28.8115 30.4377 28.7817 30.4314C28.7702 30.4291 28.7592 30.4286 28.7478 30.4263C28.3528 30.3499 27.9855 30.3812 27.6481 30.6068C27.2118 30.8836 26.8598 31.3903 26.5183 31.8874C26.22 32.3215 25.7693 32.9774 25.4972 32.9774C25.2256 32.9774 24.7752 32.3215 24.4772 31.8874C23.3979 30.3151 22.8926 30.0151 21.1539 30.8203C21.0335 30.8761 20.9642 30.9079 20.8875 30.9443C20.4259 31.1633 19.7289 31.4939 19.5168 31.3709C19.2955 31.2424 19.2337 30.4612 19.1925 29.9442C19.0235 27.8112 18.6347 27.4732 16.5642 27.3061C16.0487 27.2645 15.2697 27.2018 15.1416 26.9799C15.019 26.7672 15.3491 26.0682 15.5678 25.6058C15.9032 24.8957 16.2499 24.1617 16.0779 23.5155C15.9116 22.8919 15.2593 22.4412 14.6286 22.0056C14.1958 21.7067 13.5417 21.2548 13.5417 20.9824C13.5417 20.7098 14.1958 20.2581 14.6284 19.9592C15.2593 19.5233 15.9116 19.0727 16.0779 18.4488C16.2499 17.8031 15.9032 17.0691 15.5678 16.3591C15.3493 15.8964 15.019 15.1973 15.1418 14.9846C15.2697 14.7625 16.0487 14.6998 16.5642 14.6584C17.3383 14.596 18.1389 14.5314 18.6033 14.0657C19.0677 13.5995 19.1312 12.7967 19.1928 12.0201C19.234 11.5031 19.2958 10.7222 19.517 10.5936C19.7289 10.4715 20.4262 10.8012 20.8878 11.0203C21.5958 11.3562 22.3277 11.7036 22.9716 11.5309C23.5934 11.3641 24.0428 10.7099 24.4772 10.0774C24.7752 9.64335 25.2256 8.98739 25.4972 8.98739C25.7693 8.98739 26.2202 9.64335 26.5185 10.0774C26.9529 10.7099 27.4023 11.3638 28.0241 11.5306C28.6685 11.7031 29.4009 11.3557 30.1087 11.0195C30.57 10.8007 31.2678 10.4697 31.4794 10.5926C31.7012 10.7211 31.7635 11.5026 31.8047 12.0198C31.8667 12.7962 31.9306 13.599 32.3952 14.065C32.8598 14.5307 33.6604 14.5949 34.4346 14.6572C34.95 14.6987 35.7293 14.7612 35.8574 14.9834C35.9803 15.1961 35.6502 15.8954 35.4317 16.3583C35.0965 17.0681 34.7499 17.8023 34.9221 18.4483C35.0881 19.0722 35.7405 19.5228 36.3714 19.9587C36.8042 20.2576 37.4583 20.7095 37.4583 20.9824C37.4583 21.255 36.8042 21.707 36.3714 22.0061C35.7405 22.4417 35.0881 22.8927 34.9218 23.5165C34.7499 24.1625 35.0963 24.8965 35.4315 25.6063Z" fill="white"/>
<path d="M25.4999 13.2512C21.249 13.2512 17.7906 16.7192 17.7906 20.9824C17.7906 25.2452 21.249 28.7134 25.4999 28.7134C29.7507 28.7134 33.2091 25.2452 33.2091 20.9824C33.2091 16.7192 29.7507 13.2512 25.4999 13.2512ZM25.4999 27.6688C21.8233 27.6688 18.8323 24.6693 18.8323 20.9824C18.8323 17.2953 21.8233 14.2958 25.4999 14.2958C29.1765 14.2958 32.1675 17.2953 32.1675 20.9824C32.1675 24.6693 29.1765 27.6688 25.4999 27.6688Z" fill="white"/>
<path d="M29.0442 19.2832H26.9911L26.352 17.3209C26.231 16.9496 25.8879 16.7001 25.4983 16.7001C25.1082 16.7004 24.7648 16.9506 24.644 17.3227L24.0098 19.2832H21.9575C21.5673 19.2832 21.2243 19.5331 21.1037 19.9052C20.9829 20.2773 21.1139 20.6818 21.4293 20.9121L23.0897 22.1233L22.4559 24.082C22.3356 24.4541 22.4669 24.8586 22.7827 25.0884C23.0981 25.3179 23.5228 25.3179 23.8381 25.0879L25.4975 23.878L27.165 25.0909C27.483 25.3224 27.9077 25.3187 28.2204 25.0904C28.5358 24.8604 28.6668 24.4561 28.5465 24.084L27.912 22.1233L29.5724 20.9119C29.8877 20.6818 30.0187 20.2773 29.8979 19.9052C29.7774 19.5331 29.4343 19.2832 29.0442 19.2832ZM27.2144 21.3401C26.8995 21.5701 26.7686 21.9744 26.8889 22.3462L27.4196 23.9856L26.0247 22.971C25.867 22.8563 25.6821 22.7989 25.4973 22.7989C25.3124 22.7989 25.1272 22.8563 24.9693 22.9716L23.5833 23.9823L24.1128 22.3462C24.2331 21.9744 24.1021 21.5701 23.787 21.3398L22.3995 20.3278H24.114C24.5047 20.3278 24.848 20.0776 24.9683 19.7053L25.4988 18.0656L26.0334 19.7068C26.1541 20.0784 26.4972 20.3278 26.8871 20.3278H28.6022L27.2144 21.3401Z" fill="white"/>
</svg>
