<svg width="53" height="53" viewBox="0 0 53 53" fill="none" xmlns="http://www.w3.org/2000/svg">
<path d="M40.7141 8.71099H12.2859L26.5 0.581299L40.7141 8.71099ZM25.2453 5.27349H27.7547L26.5 4.55161L25.2453 5.27349ZM45.9734 52.4188H7.02656C5.35363 52.4188 3.74921 51.7542 2.56627 50.5713C1.38332 49.3883 0.71875 47.7839 0.71875 46.111V15.3282L11.3578 9.31255V20.6735L20.6219 27.325L26.5 20.7938L32.3781 27.2563L42.2953 20.1407V9.60474L52.2812 15.3282V46.111C52.2812 46.9393 52.1181 47.7596 51.8011 48.5249C51.4841 49.2902 51.0195 49.9855 50.4337 50.5713C49.848 51.157 49.1526 51.6216 48.3873 51.9386C47.622 52.2556 46.8018 52.4188 45.9734 52.4188ZM4.15625 17.3219V46.111C4.15625 46.8722 4.45866 47.6023 4.99694 48.1406C5.53523 48.6789 6.26531 48.9813 7.02656 48.9813H45.9734C46.7347 48.9813 47.4648 48.6789 48.0031 48.1406C48.5413 47.6023 48.8438 46.8722 48.8438 46.111V17.3219L45.7328 15.6032V21.9797L31.8969 31.9141L26.5 25.8985L21.1031 31.8454L7.92031 22.375V15.1735L4.15625 17.3219Z" fill="white"/>
</svg>
