<svg width="50" height="50" viewBox="0 0 50 50" fill="none" xmlns="http://www.w3.org/2000/svg">
<circle cx="25" cy="25" r="25" fill="#E3E1F1"/>
<path d="M36.4624 22.8661C37.2182 22.3438 38 21.8039 38 20.9824C38 20.1607 37.2182 19.6208 36.4624 19.0984C36.0542 18.8166 35.4953 18.4305 35.4284 18.1788C35.3549 17.9031 35.6423 17.2943 35.8732 16.8054C36.2577 15.9903 36.6557 15.1476 36.2592 14.4603C35.8574 13.7638 34.922 13.6885 34.0177 13.6159C33.4864 13.5733 32.8252 13.52 32.6317 13.3261C32.4384 13.1323 32.3855 12.4692 32.3431 11.9362C32.2706 11.0293 32.1958 10.0915 31.5013 9.68851C30.8154 9.2909 29.9756 9.68978 29.1631 10.0754C28.6753 10.307 28.0685 10.5952 27.7931 10.5215C27.5421 10.4544 27.1573 9.89382 26.8763 9.48473C26.3552 8.72676 25.8166 7.94276 24.9972 7.94276C24.1781 7.94276 23.6397 8.72676 23.1191 9.48473C22.8381 9.89407 22.4533 10.4544 22.2026 10.5217C21.9271 10.5957 21.3211 10.3075 20.8333 10.0759C20.0203 9.69029 19.18 9.29167 18.4952 9.68979C17.8009 10.0927 17.7264 11.0305 17.6544 11.9372C17.6122 12.4702 17.5595 13.1333 17.3663 13.3272C17.1732 13.521 16.512 13.5743 15.9808 13.6169C15.0767 13.6898 14.1416 13.7651 13.74 14.4616C13.3435 15.1492 13.7415 15.9916 14.1266 16.8064C14.3575 17.2951 14.6449 17.9036 14.5714 18.1793C14.5045 18.431 13.9455 18.8169 13.5376 19.0987C12.7818 19.621 12 20.1609 12 20.9824C12 21.8037 12.7818 22.3438 13.5376 22.8659C13.9458 23.1477 14.5045 23.5338 14.5714 23.7853C14.6449 24.0608 14.3575 24.6693 14.1263 25.1584C13.7415 25.973 13.3435 26.8154 13.7398 27.5028C14.1413 28.1993 15.0764 28.2745 15.9808 28.3475C16.1281 28.3592 16.2851 28.3724 16.4397 28.3885L12.3794 38.0629C12.2223 38.4373 12.2899 38.8597 12.5562 39.1652C12.8227 39.4713 13.2311 39.5955 13.6218 39.4899L15.8544 38.8928L17.1732 40.8974C17.3933 41.2317 17.7735 41.4023 18.1457 41.3667C18.532 41.3315 18.8665 41.0872 19.0183 40.7291L22.7385 31.9471C23.3858 32.7912 23.9716 34.0221 24.9972 34.0221C26.0249 34.0221 26.6102 32.7876 27.2599 31.9435L30.9817 40.7294C31.1335 41.0872 31.468 41.3315 31.8543 41.3667C32.2265 41.4023 32.6067 41.2317 32.8268 40.8974L34.1558 38.8887L36.3782 39.4899C36.7691 39.5955 37.177 39.4713 37.4438 39.1652C37.7101 38.8597 37.7777 38.4373 37.6208 38.0632L33.5608 28.39C33.7148 28.374 33.871 28.361 34.0177 28.349C34.922 28.2766 35.8572 28.2013 36.259 27.5048C36.6554 26.8172 36.2577 25.9746 35.8729 25.1595C35.6423 24.6703 35.3549 24.0618 35.4284 23.7863C35.4953 23.5344 36.0542 23.1482 36.4624 22.8661ZM18.0427 40.3221L16.7241 38.3175C16.4725 37.9349 16.0076 37.762 15.5731 37.8801L13.3395 38.4684L17.4283 28.7262C17.5095 28.8754 17.5561 29.1322 17.5803 29.2995C17.5882 29.3712 17.6059 29.4302 17.6536 30.0292C17.7256 30.9351 17.7999 31.8718 18.4942 32.2779C19.1805 32.6729 20.02 32.2756 20.8315 31.8905C21.1454 31.742 21.5083 31.5696 21.8012 31.4855L18.0427 40.3221ZM34.4271 37.8803C33.99 37.762 33.5259 37.9369 33.2756 38.3175L31.9405 40.3205L28.1982 31.4865C28.5351 31.5844 28.9502 31.7904 29.369 31.9864C30.2827 32.4144 31.2673 32.7678 31.8769 31.9287C31.8888 31.9124 31.9042 31.8989 31.9155 31.882C31.9185 31.8777 31.9203 31.8726 31.9231 31.868C32.2327 31.3921 32.2889 30.7022 32.3428 30.0284C32.3577 29.8412 32.3743 29.6385 32.3975 29.4451C32.3993 29.4298 32.4009 29.414 32.4028 29.3987C32.4099 29.3431 32.4179 29.2891 32.4263 29.236C32.4389 29.1575 32.4528 29.0822 32.4692 29.0131C32.4762 28.983 32.4846 28.9565 32.4925 28.9289C32.5132 28.8568 32.5358 28.7897 32.5632 28.7377C32.5655 28.7331 32.5682 28.7292 32.5707 28.7249L36.6554 38.4822C35.474 38.1631 34.3657 37.8637 34.4271 37.8803ZM34.9315 25.6063C35.1499 26.0694 35.48 26.7688 35.3572 26.9815C35.229 27.2039 34.45 27.2663 33.9343 27.3079C33.5168 27.3413 33.0934 27.3778 32.7173 27.4752C31.4976 27.7287 31.3926 28.8147 31.3027 29.9466C31.2718 30.334 31.2292 30.8701 31.1173 31.1682C30.962 31.5777 30.5997 31.4082 29.7993 31.0353C29.7973 31.0343 29.7952 31.0333 29.7932 31.0325C29.7468 31.0103 29.7306 31.0033 29.6087 30.9453C29.197 30.7499 28.7778 30.5535 28.372 30.4546C28.3419 30.4475 28.3115 30.4378 28.2817 30.4314C28.2702 30.4291 28.2592 30.4286 28.2478 30.4263C27.8528 30.3499 27.4855 30.3812 27.1481 30.6069C26.7118 30.8836 26.3598 31.3903 26.0183 31.8874C25.72 32.3215 25.2693 32.9774 24.9972 32.9774C24.7256 32.9774 24.2752 32.3215 23.9772 31.8874C22.8979 30.3151 22.3926 30.0151 20.6539 30.8203C20.5335 30.8761 20.4642 30.908 20.3875 30.9443C19.9259 31.1633 19.2289 31.4939 19.0168 31.3709C18.7955 31.2424 18.7337 30.4612 18.6925 29.9443C18.5235 27.8112 18.1347 27.4732 16.0642 27.3061C15.5487 27.2646 14.7697 27.2018 14.6416 26.9799C14.519 26.7672 14.8491 26.0682 15.0678 25.6058C15.4032 24.8958 15.7499 24.1617 15.5779 23.5155C15.4116 22.8919 14.7593 22.4413 14.1286 22.0056C13.6958 21.7067 13.0417 21.2548 13.0417 20.9824C13.0417 20.7098 13.6958 20.2581 14.1284 19.9592C14.7593 19.5233 15.4116 19.0727 15.5779 18.4489C15.7499 17.8031 15.4032 17.0691 15.0678 16.3591C14.8493 15.8964 14.519 15.1974 14.6418 14.9847C14.7697 14.7625 15.5487 14.6998 16.0642 14.6585C16.8383 14.596 17.6389 14.5315 18.1033 14.0658C18.5676 13.5995 18.6312 12.7967 18.6928 12.0201C18.734 11.5031 18.7958 10.7222 19.017 10.5936C19.2289 10.4715 19.9262 10.8012 20.3878 11.0203C21.0958 11.3562 21.8277 11.7036 22.4716 11.5309C23.0934 11.3641 23.5428 10.7099 23.9772 10.0774C24.2752 9.64337 24.7256 8.98741 24.9972 8.98741C25.2693 8.98741 25.7202 9.64337 26.0185 10.0774C26.4529 10.7099 26.9023 11.3639 27.5241 11.5307C28.1685 11.7031 28.9009 11.3557 29.6087 11.0196C30.07 10.8007 30.7678 10.4697 30.9794 10.5926C31.2012 10.7212 31.2635 11.5026 31.3047 12.0198C31.3667 12.7962 31.4306 13.599 31.8952 14.065C32.3598 14.5307 33.1604 14.595 33.9345 14.6572C34.45 14.6988 35.2293 14.7612 35.3574 14.9834C35.4803 15.1961 35.1502 15.8954 34.9317 16.3583C34.5965 17.0681 34.2499 17.8023 34.4221 18.4484C34.5881 19.0722 35.2404 19.5228 35.8714 19.9587C36.3042 20.2576 36.9583 20.7095 36.9583 20.9824C36.9583 21.2551 36.3042 21.707 35.8714 22.0062C35.2404 22.4418 34.5881 22.8927 34.4218 23.5165C34.2499 24.1625 34.5963 24.8965 34.9315 25.6063Z" fill="#010101"/>
<path d="M24.9999 13.2511C20.749 13.2511 17.2906 16.7192 17.2906 20.9824C17.2906 25.2451 20.749 28.7134 24.9999 28.7134C29.2507 28.7134 32.7091 25.2451 32.7091 20.9824C32.7091 16.7192 29.2507 13.2511 24.9999 13.2511ZM24.9999 27.6688C21.3232 27.6688 18.3323 24.6693 18.3323 20.9824C18.3323 17.2953 21.3232 14.2958 24.9999 14.2958C28.6765 14.2958 31.6674 17.2953 31.6674 20.9824C31.6674 24.6693 28.6765 27.6688 24.9999 27.6688Z" fill="#010101"/>
<path d="M28.5441 19.2832H26.4911L25.852 17.3209C25.7309 16.9496 25.3879 16.7001 24.9983 16.7001C24.6081 16.7004 24.2648 16.9506 24.144 17.3227L23.5098 19.2832H21.4574C21.0673 19.2832 20.7243 19.5331 20.6037 19.9052C20.4829 20.2773 20.6139 20.6818 20.9292 20.9121L22.5896 22.1233L21.9559 24.082C21.8356 24.4541 21.9668 24.8586 22.2827 25.0884C22.598 25.3179 23.0227 25.3179 23.3381 25.0879L24.9975 23.878L26.665 25.0909C26.983 25.3224 27.4077 25.3187 27.7204 25.0904C28.0358 24.8604 28.1667 24.4562 28.0465 24.0841L27.4119 22.1233L29.0724 20.9119C29.3877 20.6818 29.5187 20.2773 29.3979 19.9052C29.2773 19.5331 28.9343 19.2832 28.5441 19.2832ZM26.7144 21.3401C26.3995 21.5701 26.2685 21.9744 26.3888 22.3462L26.9196 23.9856L25.5247 22.9711C25.367 22.8563 25.1821 22.7989 24.9972 22.7989C24.8123 22.7989 24.6272 22.8563 24.4693 22.9716L23.0833 23.9823L23.6128 22.3462C23.733 21.9744 23.6021 21.5701 23.287 21.3398L21.8994 20.3278H23.614C24.0046 20.3278 24.348 20.0776 24.4683 19.7053L24.9988 18.0656L25.5333 19.7068C25.6541 20.0784 25.9972 20.3278 26.3871 20.3278H28.1021L26.7144 21.3401Z" fill="#010101"/>
</svg>
